 <svg version="1.0" xmlns="http://www.w3.org/2000/svg" width="700.000000pt" height="700.000000pt" viewBox="0 0 700.000000 700.000000" preserveAspectRatio="xMidYMid meet">
<metadata>
Created by potrace 1.12, written by Peter Selinger 2001-2015
</metadata>
<g transform="translate(0.000000,700.000000) scale(0.100000,-0.100000)" fill="#000000" stroke="none">
<path d="M2445 5814 c-88 -8 -277 -35 -375 -54 -200 -40 -486 -131 -565 -180
-91 -56 -87 -202 7 -260 48 -29 103 -25 209 16 411 160 910 209 1304 129 320
-65 587 -198 849 -424 79 -67 216 -211 202 -211 -3 0 -31 16 -62 36 -31 20
-115 65 -188 100 -518 253 -1058 254 -1424 2 -130 -90 -264 -253 -332 -403
-145 -322 -132 -730 36 -1140 25 -60 65 -166 88 -235 92 -263 143 -386 243
-585 230 -458 538 -823 893 -1059 590 -392 1388 -471 2176 -215 67 21 137 49
155 62 68 45 90 144 47 207 -58 84 -122 94 -256 42 -264 -104 -686 -164 -991
-141 -306 22 -538 85 -781 210 -193 99 -341 210 -510 385 -103 106 -247 281
-238 289 2 3 34 -15 70 -40 490 -328 1055 -428 1481 -261 169 66 341 199 443
342 62 86 130 235 161 351 25 91 27 113 27 308 1 223 -7 281 -59 460 -40 136
-190 554 -239 669 -408 944 -1041 1477 -1886 1586 -91 12 -402 21 -485 14z
m733 -974 c720 -78 1449 -759 1609 -1502 13 -62 18 -126 18 -248 -1 -178 -11
-238 -63 -355 -172 -394 -649 -527 -1179 -329 -605 226 -1120 803 -1255 1405
-32 144 -32 375 0 494 83 304 303 492 627 535 88 11 135 11 243 0z"></path>
<path d="M3186 4285 c-221 -56 -356 -240 -356 -485 1 -577 718 -1115 1179
-884 75 37 165 124 199 190 80 157 74 378 -17 579 -75 165 -233 351 -380 449
-85 57 -215 119 -296 141 -86 23 -256 28 -329 10z"></path>
<path d="M1178 5130 c-69 -12 -111 -57 -175 -185 -59 -117 -92 -237 -113 -408
-22 -174 -3 -244 76 -282 106 -50 223 27 224 148 0 65 26 230 46 297 19 66 45
117 90 183 26 38 34 60 34 94 0 101 -82 170 -182 153z"></path>
<path d="M5563 3891 c-56 -26 -83 -71 -83 -136 0 -55 3 -60 76 -166 204 -295
288 -660 238 -1036 -9 -67 -14 -137 -10 -157 13 -71 101 -127 178 -112 48 9
105 59 118 104 48 174 51 514 6 722 -58 273 -178 544 -316 719 -60 76 -131 97
-207 62z"></path>
</g>
</svg>